<?xml version="1.0" encoding="utf-8"?>
<!-- Generator: Adobe Illustrator 16.0.0, SVG Export Plug-In . SVG Version: 6.00 Build 0)  -->
<!DOCTYPE svg PUBLIC "-//W3C//DTD SVG 1.1//EN" "http://www.w3.org/Graphics/SVG/1.1/DTD/svg11.dtd">
<svg version="1.1" id="Layer_1" xmlns="http://www.w3.org/2000/svg" xmlns:xlink="http://www.w3.org/1999/xlink" x="0px" y="0px"
	 width="266.705px" height="266.705px" viewBox="0 0 266.705 266.705" enable-background="new 0 0 266.705 266.705"
	 xml:space="preserve">
<path fill="#064F65" d="M266.705,235.705c0,17.121-13.879,31-31,31H31c-17.121,0-31-13.879-31-31V31C0,13.879,13.879,0,31,0h204.705
	c17.121,0,31,13.879,31,31V235.705L266.705,235.705z"/>
<g>
	<path fill="#FFFFFF" d="M245.647,68l-51,135.998H161.05l-28.6-88.599l-32,88.599h-34L21.254,68h34.999l28.2,88.199l31-88.199h35.8
		l27.602,87.798L210.451,68H245.647z"/>
</g>
<rect x="195.667" y="92.706" fill="#064F65" width="46.148" height="10.75"/>
</svg>
