<?xml version="1.0" encoding="utf-8"?>
<!-- Generator: Adobe Illustrator 16.0.0, SVG Export Plug-In . SVG Version: 6.00 Build 0)  -->
<!DOCTYPE svg PUBLIC "-//W3C//DTD SVG 1.1//EN" "http://www.w3.org/Graphics/SVG/1.1/DTD/svg11.dtd">
<svg version="1.1" id="Layer_1" xmlns="http://www.w3.org/2000/svg" xmlns:xlink="http://www.w3.org/1999/xlink" x="0px" y="0px"
	 width="161.722px" height="105.679px" viewBox="31.507 59.528 161.722 105.679"
	 enable-background="new 31.507 59.528 161.722 105.679" xml:space="preserve">
<g>
	<rect x="97.645" y="116.625" fill="#BDBEC0" width="27.982" height="11.935"/>
	<path fill="#BDBEC0" d="M188.331,159.102c0,0-2.379,7.517-16.065,5.87c0,0-7.261-2.743-9.496-6.036l-21.803-40.37l16.497,5.805
		L188.331,159.102z"/>
	<path fill="#424143" d="M51.55,74.715l2.469-8.778c0,0,1.098-3.018,4.938-3.841c0,0,10.699-3.018,15.637,0.823
		c0,0,3.567,1.372,4.115,5.212l1.921,9.053L51.55,74.715z"/>
	<path fill="#F2F2F2" d="M49.63,73.892l2.469-8.779c0,0,1.097-3.018,4.938-3.841c0,0,10.698-3.018,15.637,0.823
		c0,0,3.567,1.372,4.115,5.212l1.92,9.053L49.63,73.892z"/>
	<path fill="#424143" d="M172.156,74.098l-2.515-8.779c0,0-1.116-3.018-5.024-3.84c0,0-10.89-3.018-15.914,0.823
		c0,0-3.629,1.372-4.188,5.212l-1.954,9.053L172.156,74.098z"/>
	<path fill="#F2F2F2" d="M174.109,73.275l-2.512-8.779c0,0-1.117-3.018-5.024-3.841c0,0-10.89-3.018-15.915,0.823
		c0,0-3.63,1.372-4.188,5.212l-1.955,9.053L174.109,73.275z"/>
	<path fill="#BDBEC0" d="M35.37,155.388c0,0,3.283,8.761,16.727,7.115c0,0,7.132-2.744,9.327-6.037L80.452,121l-13.815,0.9
		L35.37,155.388z"/>
	<path fill="#BDBEC0" d="M71.356,119.341v12.345c4.39,6.584,13.443,6.31,13.443,6.31c14.265-1.371,17.832-12.07,17.832-12.07
		v-10.973L71.356,119.341z"/>
	<path fill="#BDBEC0" d="M152.641,120.419v12.345c-4.469,6.584-13.686,6.31-13.686,6.31c-14.523-1.371-18.154-12.07-18.154-12.07
		V116.03L152.641,120.419z"/>
	<path fill="#F2F2F2" d="M193.213,145.22l-7.506-48.552l-32.638,17.078c-0.622-5.269-3.813-9.764-8.308-12.247V75.701h-66.87
		l-8.217,35.1L37.017,94.472l-5.495,48.277c0,0-0.822,13.168,9.603,17.283c0,0,8.229,3.566,15.911-7.132l14.274-29.377
		c2.625,5.522,8.32,9.353,14.926,9.353c8.34,0,15.227-6.099,16.317-14.008h18.017c1.522,7.401,8.173,12.975,16.145,12.975
		c6.337,0,11.835-3.521,14.59-8.686l15.936,32.213c7.819,10.698,16.198,7.133,16.198,7.133
		C194.051,158.388,193.213,145.22,193.213,145.22z"/>
	<g>
		<path fill="#62CBE6" d="M164.215,83.899h-7.682l3.971-6.733L164.215,83.899z M157.752,83.204h5.285l-2.554-4.633L157.752,83.204z"
			/>
	</g>
	<g>
		<path fill="#59BA47" d="M151.053,95.698h-6.26v-6.26h6.26V95.698z M145.489,95.002h4.868v-4.869h-4.868V95.002z"/>
	</g>
	<g>
		<path fill="#EE3424" d="M173.313,96.394c-2.014,0-3.651-1.638-3.651-3.652c0-2.013,1.639-3.652,3.651-3.652
			c2.014,0,3.651,1.639,3.651,3.652C176.964,94.755,175.326,96.394,173.313,96.394z M173.313,89.786
			c-1.631,0-2.957,1.326-2.957,2.956c0,1.63,1.326,2.957,2.957,2.957c1.629,0,2.955-1.326,2.955-2.957
			C176.268,91.112,174.941,89.786,173.313,89.786z"/>
	</g>
	<g>
		<g>
			
				<rect x="159.668" y="100.366" transform="matrix(-0.651 -0.7591 0.7591 -0.651 184.9571 293.7998)" fill="#9B55A1" width="0.696" height="8.034"/>
		</g>
		<g>
			
				<rect x="156.121" y="103.898" transform="matrix(-0.7751 -0.6319 0.6319 -0.7751 218.9261 286.4246)" fill="#9B55A1" width="8.645" height="0.696"/>
		</g>
	</g>
	<g>
		<circle fill="#141414" cx="147.832" cy="92.513" r="5.803"/>
	</g>
	<ellipse fill="#D2D3D4" cx="63.077" cy="94.334" rx="26.885" ry="24.827"/>
	<ellipse fill="#D2D3D4" cx="159.781" cy="93.1" rx="26.885" ry="24.827"/>
	<g>
		<ellipse fill="#595A5C" cx="136.791" cy="120.371" rx="11.035" ry="9.122"/>
		<ellipse fill="#231F20" cx="136.733" cy="119.122" rx="9.225" ry="8.075"/>
		<ellipse fill="#424143" cx="135.904" cy="117.185" rx="9.224" ry="8.075"/>
	</g>
	<g>
		<ellipse fill="#595A5C" cx="87.175" cy="121.223" rx="11.035" ry="9.123"/>
		<ellipse fill="#231F20" cx="87.232" cy="119.974" rx="9.224" ry="8.075"/>
		<ellipse fill="#424143" cx="88.061" cy="118.036" rx="9.224" ry="8.075"/>
	</g>
	<g>
		<path fill="#424143" d="M105.189,94.472H95.79c-1.391,0-2.518-1.127-2.518-2.517l0,0c0-1.39,1.127-2.517,2.518-2.517h9.398
			c1.391,0,2.518,1.127,2.518,2.517l0,0C107.707,93.345,106.58,94.472,105.189,94.472z"/>
		<path fill="#424143" d="M127.014,94.472h-9.399c-1.391,0-2.518-1.127-2.518-2.517l0,0c0-1.39,1.127-2.517,2.518-2.517h9.399
			c1.39,0,2.518,1.127,2.518,2.517l0,0C129.531,93.345,128.403,94.472,127.014,94.472z"/>
	</g>
	<g>
		<path fill="#424143" d="M57.651,80.399c0-1.223,0.991-2.214,2.215-2.214h3.213h3.213c1.223,0,2.214,0.991,2.214,2.214v6.913
			c-6.464,5.809-4.396,5.812-10.854,0V80.399z"/>
		<path fill="#424143" d="M49.105,99.898c-1.277,0-2.313-1.036-2.313-2.313v-3.113v-3.114c0-1.278,1.036-2.313,2.313-2.313h6.813
			c5.81,6.464,5.812,4.394,0,10.854L49.105,99.898L49.105,99.898z"/>
		<path fill="#424143" d="M68.506,108.458c0,1.27-1.03,2.3-2.3,2.3h-3.128h-3.127c-1.271,0-2.3-1.03-2.3-2.3v-6.827
			c6.464-5.81,4.395-5.812,10.854,0V108.458z"/>
		<path fill="#424143" d="M76.998,89.044c1.307,0,2.367,1.06,2.367,2.367v3.06v3.059c0,1.308-1.061,2.368-2.367,2.368h-6.761
			c-5.809-6.463-5.812-4.394,0-10.854H76.998z"/>
	</g>
	<g>
		<g>
			<path fill="#424143" d="M159.781,87.501c2.976,0,5.401-2.427,5.401-5.403s-2.427-5.403-5.401-5.403
				c-2.978,0-5.403,2.427-5.403,5.403S156.805,87.501,159.781,87.501z"/>
			<path fill="#424143" d="M159.781,109.502c2.976,0,5.401-2.427,5.401-5.403s-2.427-5.404-5.401-5.404
				c-2.978,0-5.403,2.428-5.403,5.404S156.805,109.502,159.781,109.502z"/>
		</g>
		<g>
			<circle fill="#424143" cx="148.781" cy="93.099" r="5.403"/>
			<circle fill="#424143" cx="170.782" cy="93.099" r="5.403"/>
		</g>
	</g>
</g>
</svg>
