<?xml version="1.0" encoding="utf-8"?>
<!-- Generator: Adobe Illustrator 16.0.0, SVG Export Plug-In . SVG Version: 6.00 Build 0)  -->
<!DOCTYPE svg PUBLIC "-//W3C//DTD SVG 1.1//EN" "http://www.w3.org/Graphics/SVG/1.1/DTD/svg11.dtd">
<svg version="1.1" id="Layer_1" xmlns="http://www.w3.org/2000/svg" xmlns:xlink="http://www.w3.org/1999/xlink" x="0px" y="0px"
	 width="58.194px" height="60.2px" viewBox="0 0 58.194 60.2" enable-background="new 0 0 58.194 60.2" xml:space="preserve">
<path fill="#024E64" d="M52.658,30.061c0-4.089,2.228-7.656,5.536-9.555l-3.127-5.441l-3.185-5.54
	c-1.61,0.922-3.477,1.468-5.466,1.468c-6.083,0-11.012-4.998-11.012-10.993H22.803c0,5.995-4.93,10.993-11.012,10.993
	c-1.998,0-3.872-0.541-5.487-1.472l-6.311,10.977c3.32,1.897,5.562,5.469,5.562,9.567c0,4.098-2.235,7.672-5.555,9.567l3.257,5.65
	v0.001l3.054,5.33c1.616-0.93,3.481-1.444,5.479-1.444c6.081,0,11.013,4.913,11.013,11.031h12.603
	c0-6.118,4.929-11.032,11.012-11.032c1.989,0,3.855,0.519,5.466,1.441l6.312-10.987C54.886,37.724,52.658,34.149,52.658,30.061z
	 M29.094,42.58c-6.893,0-12.479-5.588-12.479-12.48c0-6.893,5.587-12.481,12.479-12.481s12.48,5.588,12.48,12.481
	C41.574,36.992,35.986,42.58,29.094,42.58z"/>
</svg>
