<?xml version="1.0" encoding="utf-8"?>
<!-- Generator: Adobe Illustrator 16.0.0, SVG Export Plug-In . SVG Version: 6.00 Build 0)  -->
<!DOCTYPE svg PUBLIC "-//W3C//DTD SVG 1.1//EN" "http://www.w3.org/Graphics/SVG/1.1/DTD/svg11.dtd">
<svg version="1.1" id="Layer_1" xmlns="http://www.w3.org/2000/svg" xmlns:xlink="http://www.w3.org/1999/xlink" x="0px" y="0px"
	 width="617.313px" height="118.732px" viewBox="0 0 617.313 118.732" enable-background="new 0 0 617.313 118.732"
	 xml:space="preserve">
<g>
	<g>
		<rect x="-0.001" y="0" fill="#F4F5F5" width="118.732" height="118.732"/>
		<g>
			<g>
				<path d="M85.724,45.168H70.727c0-3.128-3.681-7.36-10.122-7.36c-4.508,0-10.029,2.024-10.029,5.612
					c0,3.036,4.14,4.232,12.973,6.533c9.845,2.576,23.739,5.889,23.739,19.689c0,11.962-10.489,19.415-25.119,19.415
					c-19.598,0-27.787-13.25-27.787-23.003H49.38c0,0,1.196,9.938,13.618,9.938c6.717,0,9.201-2.853,9.201-5.521
					c0-3.956-5.244-5.336-11.041-6.717c-9.385-2.208-25.855-5.704-25.855-19.598c0-11.409,11.225-19.874,25.487-19.874
					C77.075,24.282,85.724,35.415,85.724,45.168z"/>
			</g>
		</g>
	</g>
	<g>
		<rect x="125.273" y="0" fill="#F4F5F5" width="118.731" height="118.732"/>
		<g>
			<g>
				<path d="M193.515,50.596l26.131,37.356h-19.598l-17.114-25.854l-10.765,11.777v14.077h-15.09V25.385h15.09v27.512l23.923-27.512
					h18.954L193.515,50.596z"/>
			</g>
		</g>
	</g>
	<g>
		<rect x="249.232" y="0" fill="#F4F5F5" width="118.731" height="118.732"/>
		<g>
			<g>
				<path d="M317.567,87.953h-15.089V25.385h15.089V87.953z"/>
			</g>
		</g>
	</g>
	<g>
		<rect x="374.505" y="0" fill="#787D7F" width="118.731" height="118.732"/>
		<g>
			<path fill="#F4F5F5" d="M459.678,60.902c0,16.838-8.188,28.155-25.119,28.155c-13.984,0-25.118-11.317-25.118-27.512h15.09
				c0,8.925,3.864,13.525,10.028,13.525c6.258,0,9.938-4.601,9.938-14.169V25.385h15.182V60.902z"/>
		</g>
	</g>
	<g>
		<rect x="498.581" y="0" fill="#F4F5F5" width="118.732" height="118.732"/>
		<g>
			<g>
				<path d="M584.213,25.385v13.986h-32.848v10.765h27.418v13.065h-27.418v10.766h32.848v13.985h-47.938V25.385H584.213z"/>
			</g>
		</g>
	</g>
</g>
</svg>
