<?xml version="1.0" encoding="utf-8"?>
<!-- Generator: Adobe Illustrator 16.0.0, SVG Export Plug-In . SVG Version: 6.00 Build 0)  -->
<!DOCTYPE svg PUBLIC "-//W3C//DTD SVG 1.1//EN" "http://www.w3.org/Graphics/SVG/1.1/DTD/svg11.dtd">
<svg version="1.1" id="Layer_1" xmlns="http://www.w3.org/2000/svg" xmlns:xlink="http://www.w3.org/1999/xlink" x="0px" y="0px"
	 width="617.313px" height="118.732px" viewBox="0 0 617.313 118.732" enable-background="new 0 0 617.313 118.732"
	 xml:space="preserve">
<g>
	<g>
		<rect x="0" y="0" fill="#F4F5F5" width="118.732" height="118.732"/>
		<g>
			<g>
				<path d="M85.783,50.667H70.786c0-3.128-3.681-7.36-10.122-7.36c-4.508,0-10.029,2.024-10.029,5.612
					c0,3.036,4.14,4.232,12.973,6.533c9.845,2.576,23.739,5.889,23.739,19.689c0,11.962-10.489,19.415-25.119,19.415
					c-19.598,0-27.787-13.25-27.787-23.003h14.998c0,0,1.196,9.938,13.618,9.938c6.717,0,9.201-2.853,9.201-5.521
					c0-3.956-5.244-5.336-11.041-6.717c-9.385-2.208-25.855-5.704-25.855-19.598c0-11.409,11.225-19.874,25.487-19.874
					C77.134,29.781,85.783,40.914,85.783,50.667z"/>
			</g>
		</g>
	</g>
	<g>
		<rect x="125.273" y="0" fill="#C9B457" width="118.731" height="118.732"/>
		<g>
			<g>
				<path fill="#F4F5F5" d="M216.301,61.341c0,20.702-13.065,33.216-30.547,33.216c-17.758,0-29.812-12.514-29.812-33.216V30.885
					h15.09v30.456c0,12.053,5.153,19.229,14.722,19.229c9.385,0,15.274-7.177,15.274-19.229V30.885h15.273V61.341z"/>
			</g>
		</g>
	</g>
	<g>
		<rect x="249.232" y="0" fill="#F4F5F5" width="118.731" height="118.732"/>
		<g>
			<g>
				<path d="M337.362,54.992c0,12.329-7.821,24.29-23.831,24.29h-13.618v14.17h-15.182V30.885h28.891
					C329.633,30.885,337.362,42.846,337.362,54.992z M299.913,44.871v20.518h11.961c6.073,0,10.214-3.588,10.214-10.396
					c0-6.717-4.141-10.029-10.214-10.121H299.913z"/>
			</g>
		</g>
	</g>
	<g>
		<rect x="374.506" y="0" fill="#F4F5F5" width="118.73" height="118.732"/>
		<g>
			<g>
				<path d="M460.198,30.885v13.986H427.35v10.765h27.419v13.065H427.35v10.766h32.848v13.985H412.26V30.885H460.198z"/>
			</g>
		</g>
	</g>
	<g>
		<rect x="498.581" y="0" fill="#F4F5F5" width="118.732" height="118.732"/>
		<g>
			<g>
				<path d="M586.435,54.347c0,9.017-4.417,16.654-11.134,20.242l12.882,18.862h-18.771l-9.385-15.55h-11.041v15.55h-15.09V30.885
					h30.271C576.866,30.885,586.435,40.73,586.435,54.347z M548.987,44.871v19.046h12.973c5.152,0,9.293-4.325,9.293-9.569
					c0-5.152-4.141-9.477-9.201-9.477H548.987z"/>
			</g>
		</g>
	</g>
</g>
</svg>
