<?xml version="1.0" encoding="utf-8"?>
<!-- Generator: Adobe Illustrator 16.0.0, SVG Export Plug-In . SVG Version: 6.00 Build 0)  -->
<!DOCTYPE svg PUBLIC "-//W3C//DTD SVG 1.1//EN" "http://www.w3.org/Graphics/SVG/1.1/DTD/svg11.dtd">
<svg version="1.1" id="Layer_1" xmlns="http://www.w3.org/2000/svg" xmlns:xlink="http://www.w3.org/1999/xlink" x="0px" y="0px"
	 width="617.313px" height="118.732px" viewBox="0 0 617.313 118.732" enable-background="new 0 0 617.313 118.732"
	 xml:space="preserve">
<g>
	<g>
		<rect y="0" fill="#69AA63" width="118.732" height="118.732"/>
		<g enable-background="new    ">
			<path fill="#F5F5F5" d="M91.028,65.523c0,20.702-13.065,33.216-30.547,33.216c-17.758,0-29.812-12.514-29.812-33.216V35.067
				h15.09v30.456c0,12.053,5.153,19.229,14.722,19.229c9.385,0,15.274-7.177,15.274-19.229V35.067h15.273V65.523z"/>
		</g>
	</g>
	<g>
		<rect x="125.274" y="0" fill="#F5F5F5" width="118.732" height="118.732"/>
		<g enable-background="new    ">
			<path d="M218.096,82.453c-5.613,9.385-16.01,16.286-29.259,16.286c-19.598,0-33.86-14.354-33.86-32.848
				c0-17.391,14.262-31.928,33.86-31.928c13.341,0,23.831,6.257,29.443,15.642l-12.79,7.453c-2.944-5.705-8.741-9.478-16.654-9.478
				c-10.949,0-18.586,8.005-18.586,18.311c0,9.937,7.637,18.678,18.586,18.678c7.729,0,13.434-3.956,16.47-9.478L218.096,82.453z
				 M207.422,13.72l-20.794,13.158L165.833,13.72l6.533-8.372l14.261,9.661l14.262-9.661L207.422,13.72z"/>
		</g>
	</g>
	<g>
		<rect x="249.233" y="0" fill="#F5F5F5" width="118.73" height="118.732"/>
		<g enable-background="new    ">
			<path d="M317.627,97.635h-15.09V35.067h15.09V97.635z"/>
		</g>
	</g>
	<g>
		<rect x="374.506" y="0" fill="#F5F5F5" width="118.732" height="118.732"/>
		<g enable-background="new    ">
			<path d="M465.167,49.052h-22.174v48.582h-15.273V49.052h-22.175V35.067h59.622V49.052z"/>
		</g>
	</g>
	<g>
		<rect x="498.581" y="0" fill="#F5F5F5" width="118.732" height="118.732"/>
		<g enable-background="new    ">
			<path d="M566.975,97.635h-15.09V35.067h15.09V97.635z"/>
		</g>
	</g>
</g>
</svg>
